<svg width="1440" height="144" viewBox="0 0 1440 144" fill="none" xmlns="http://www.w3.org/2000/svg">
<path opacity="0.25" d="M0 0V55.548C57.3878 82.188 124.394 94.152 189.732 89.148C274.222 82.704 353.441 49.176 438.064 44.148C526.734 38.916 615.235 64.404 700.086 86.46C783.268 108.06 866.161 116.316 951.54 102.156C994.95 94.956 1035.42 80.748 1076.97 66.948C1188.21 30 1336.53 -17.148 1441 62.964V0H0Z" fill="#FFA62B" fill-opacity="0.1"/>
<path opacity="0.5" d="M0 0V18.972C15.6108 44.304 33.191 68.232 57.2677 86.46C119.375 133.524 198.137 133.2 269.683 109.896C307.089 97.716 341.841 78.612 377.362 62.136C426.5 39.336 479.108 6.936 534.467 2.532C578.009 -0.888 619.606 13.836 652.869 40.404C691.02 70.872 727.705 114.804 777.311 128.004C825.873 140.952 874.999 119.976 920.367 98.868C965.734 77.76 1010.62 52.068 1060.77 47.208C1132.49 40.188 1196.8 74.664 1263.59 93.816C1299.85 104.208 1334.44 101.22 1368.17 84.816C1395.1 71.748 1425.81 52.5 1441 25.728V0H0Z" fill="#FFA62B" fill-opacity="0.1"/>
<path d="M0 0V6.756C180.041 70.8 377.17 85.584 571.393 51.084C623.028 41.916 672.539 26.94 724.631 19.332C795.48 8.976 859.701 34.02 923.441 61.812C994.206 92.664 1063.94 114.288 1142.23 108C1246.14 99.6 1349.33 53.148 1441 6.228V0H0Z" fill="#FFA62B" fill-opacity="0.1"/>
</svg>
